<?xml version="1.0" encoding="UTF-8" standalone="no"?>
<svg width="22px" height="22px" viewBox="0 0 22 22" version="1.1" xmlns="http://www.w3.org/2000/svg" xmlns:xlink="http://www.w3.org/1999/xlink">
    <!-- Generator: Sketch 49.3 (51167) - http://www.bohemiancoding.com/sketch -->
    <title>Group 5</title>
    <desc>Created with Sketch.</desc>
    <defs></defs>
    <g id="Page-1" stroke="none" stroke-width="1" fill="none" fill-rule="evenodd">
        <g id="mail-template" transform="translate(-516.000000, -973.000000)">
            <g id="Group-5" transform="translate(516.000000, 973.000000)">
                <rect id="Rectangle-4-Copy" stroke="#FFFFFF" x="0.5" y="0.5" width="21" height="21" rx="5"></rect>
                <path d="M9.39300164,16.8666667 C7.77076727,16.8666667 6.6,15.8532221 6.6,14.6362969 C6.6,13.4431244 8.05303445,12.4494737 9.67446692,12.4668923 C10.0521597,12.4716428 10.4049936,12.5310243 10.7249499,12.6331605 C11.6046291,13.2380602 12.2365227,13.579306 12.4145435,14.2681316 C12.4482231,14.4082719 12.4666667,14.5507876 12.4666667,14.6980537 C12.4666667,15.9157707 11.6719883,16.8666667 9.39300164,16.8666667 M9.47838797,10.2659691 C8.48073277,10.2331233 7.53233542,9.04987509 7.36030055,7.62228647 C7.18826569,6.19469786 7.85729017,5.10197571 8.85494537,5.13402035 C9.85186537,5.1668661 10.8009979,6.31166079 10.9730328,7.74005052 C11.1450676,9.16763913 10.4760432,10.2988148 9.47838797,10.2659691 M11.5383738,11.9980715 C11.1890213,11.736524 10.5218755,11.1008937 10.5218755,10.7268109 C10.5218755,10.2875353 10.6400388,10.0725541 11.2631486,9.55722013 C11.902405,9.02869238 12.3552422,8.28595955 12.3552422,7.42293039 C12.3552422,6.39381468 11.9222212,5.39186265 11.1090225,5.06124177 L12.334692,5.06124177 L13.2,4.4 L9.33363661,4.4 C7.60155279,4.4 5.97001789,5.78845249 5.97001789,7.3965428 C5.97001789,9.04033396 7.15165135,10.366698 8.9145604,10.366698 C9.03786128,10.366698 9.15602463,10.3643697 9.2727201,10.3550564 C9.15896036,10.5863358 9.07602584,10.8478833 9.07602584,11.117968 C9.07602584,11.5750941 9.30868286,11.9460724 9.60299033,12.2479774 C9.38060838,12.2479774 9.16556577,12.2549624 8.93290874,12.2549624 C6.78615231,12.2549624 5.13333333,13.7000706 5.13333333,15.2002822 C5.13333333,16.6764346 6.94541595,17.6 9.09143845,17.6 C11.5383738,17.6 12.8910139,16.1316087 12.8910139,14.6546802 C12.8910139,13.4711195 12.5600097,12.7617592 11.5383738,11.9980715 M17.6,10.3684229 L16.0315771,10.3684229 L16.0315771,8.8 L14.7684229,8.8 L14.7684229,10.3684229 L13.2,10.3684229 L13.2,11.6315771 L14.7684229,11.6315771 L14.7684229,13.2 L16.0315771,13.2 L16.0315771,11.6315771 L17.6,11.6315771 L17.6,10.3684229" id="Shape" fill="#FFFFFF"></path>
            </g>
        </g>
    </g>
</svg>