<?xml version="1.0" encoding="UTF-8" standalone="no"?>
<svg width="30px" height="30px" viewBox="0 0 30 30" version="1.1" xmlns="http://www.w3.org/2000/svg" xmlns:xlink="http://www.w3.org/1999/xlink">
    <!-- Generator: Sketch 49.3 (51167) - http://www.bohemiancoding.com/sketch -->
    <title>Group Copy</title>
    <desc>Created with Sketch.</desc>
    <defs></defs>
    <g id="Page-1" stroke="none" stroke-width="1" fill="none" fill-rule="evenodd">
        <g id="Desktop-all-documents" transform="translate(-954.000000, -32.000000)">
            <g id="Group-Copy" transform="translate(954.000000, 32.000000)">
                <rect id="Rectangle-4" stroke="#FFFFFF" x="0.5" y="0.5" width="29" height="29" rx="5"></rect>
                <path d="M13.5996612,18.2142857 C13.6128365,17.4280344 13.7182373,16.795045 13.9158667,16.3152985 C14.1134962,15.835552 14.5383931,15.2708588 15.1905703,14.621202 C15.8427475,13.9715453 16.2627037,13.5117951 16.4504517,13.2419376 C16.6381997,12.9720802 16.7831258,12.6755746 16.8852343,12.352412 C16.9873429,12.0292495 17.0383964,11.6611161 17.0383964,11.2480011 C17.0383964,10.4151078 16.8193604,9.76046347 16.3812818,9.28404851 C15.9432032,8.80763355 15.3322079,8.56942964 14.5482778,8.56942964 C13.75776,8.56942964 13.1204146,8.79763898 12.6362225,9.2540645 C12.1520303,9.71049002 11.9033503,10.3284876 11.890175,11.1080757 L10.7142857,11.1080757 C10.727461,10.0153197 11.09307,9.14079486 11.8111237,8.48447495 C12.5291773,7.82815503 13.4415529,7.5 14.5482778,7.5 C15.6813533,7.5 16.5756131,7.83481808 17.2310841,8.50446429 C17.8865551,9.17411049 18.2142857,10.0819506 18.2142857,11.2280117 C18.2142857,11.9476315 18.0528908,12.622265 17.730096,13.2519323 C17.4073012,13.8815996 16.7946591,14.6162005 15.8921513,15.4557569 C15.1477471,16.0887558 14.7755505,17.0082562 14.7755505,18.2142857 L13.5996612,18.2142857 Z M13.9285714,22.5202156 C13.9285714,22.2147334 14.0216441,21.9564251 14.2077922,21.745283 C14.3939403,21.5341409 14.6558425,21.4285714 14.9935065,21.4285714 C15.3225125,21.4285714 15.5844146,21.5341409 15.7792208,21.745283 C15.9740269,21.9564251 16.0714286,22.2147334 16.0714286,22.5202156 C16.0714286,22.8167131 15.9740269,23.0660367 15.7792208,23.2681941 C15.5844146,23.4703514 15.3225125,23.5714286 14.9935065,23.5714286 C14.6558425,23.5714286 14.3939403,23.4703514 14.2077922,23.2681941 C14.0216441,23.0660367 13.9285714,22.8167131 13.9285714,22.5202156 Z" id="?" fill="#FFFFFF"></path>
            </g>
        </g>
    </g>
</svg>