<?xml version="1.0" encoding="UTF-8" standalone="no"?>
<svg width="22px" height="22px" viewBox="0 0 22 22" version="1.1" xmlns="http://www.w3.org/2000/svg" xmlns:xlink="http://www.w3.org/1999/xlink">
    <!-- Generator: Sketch 49.3 (51167) - http://www.bohemiancoding.com/sketch -->
    <title>Group 4</title>
    <desc>Created with Sketch.</desc>
    <defs></defs>
    <g id="Page-1" stroke="none" stroke-width="1" fill="none" fill-rule="evenodd">
        <g id="mail-template" transform="translate(-545.000000, -973.000000)">
            <g id="Group-4" transform="translate(545.000000, 973.000000)">
                <rect id="Rectangle-4" stroke="#FFFFFF" x="0.5" y="0.5" width="21" height="21" rx="5"></rect>
                <path d="M6.84046331,9.65691723 L8.6985889,9.65691723 L8.6985889,16.1327229 L6.84046331,16.1327229 L6.84046331,9.65691723 Z M7.72216212,8.84690741 L7.70870963,8.84690741 C7.03608498,8.84690741 6.6,8.3518675 6.6,7.72497972 C6.6,7.0852734 7.04897695,6.6 7.73505409,6.6 C8.42057071,6.6 8.84208216,7.08405259 8.85553465,7.7231485 C8.85553465,8.35003628 8.42057071,8.84690741 7.72216212,8.84690741 L7.72216212,8.84690741 Z M16.1333333,16.1333333 L14.0263366,16.1333333 L14.0263366,12.7815896 C14.0263366,11.9044351 13.6967505,11.3062364 12.9719975,11.3062364 C12.4176427,11.3062364 12.1093564,11.7097153 11.9658631,12.0997652 C11.9120532,12.238938 11.920461,12.4336577 11.920461,12.6289879 L11.920461,16.1333333 L9.83308247,16.1333333 C9.83308247,16.1333333 9.85998746,10.1965168 9.83308247,9.65691723 L11.920461,9.65691723 L11.920461,10.6732445 C12.0437755,10.2288684 12.7107949,9.59465574 13.7752234,9.59465574 C15.0958098,9.59465574 16.1333333,10.5267469 16.1333333,12.5319332 L16.1333333,16.1333333 L16.1333333,16.1333333 Z" id="Shape" fill="#FFFFFF"></path>
            </g>
        </g>
    </g>
</svg>