<?xml version="1.0" encoding="UTF-8" standalone="no"?>
<svg width="28px" height="28px" viewBox="0 0 28 28" version="1.1" xmlns="http://www.w3.org/2000/svg" xmlns:xlink="http://www.w3.org/1999/xlink">
    <!-- Generator: Sketch 49.3 (51167) - http://www.bohemiancoding.com/sketch -->
    <title>Group 13</title>
    <desc>Created with Sketch.</desc>
    <defs></defs>
    <g id="Page-1" stroke="none" stroke-width="1" fill="none" fill-rule="evenodd" opacity="0.5">
        <g id="Desktop-HD-Copy-2" transform="translate(-1360.000000, -650.000000)">
            <g id="Group-13" transform="translate(1360.000000, 650.000000)">
                <circle id="Oval" stroke="#FFFFFF" stroke-width="2" cx="14" cy="14" r="13"></circle>
                <path d="M8.32790452,11.1685235 L10.8617121,11.1685235 L10.8617121,19.9991676 L8.32790452,19.9991676 L8.32790452,11.1685235 Z M9.53022107,10.0639647 L9.51187676,10.0639647 C8.59466134,10.0639647 8,9.38891023 8,8.53406326 C8,7.66173646 8.6122413,7 9.54780103,7 C10.4825964,7 11.0573848,7.66007171 11.0757291,8.53156614 C11.0757291,9.38641311 10.4825964,10.0639647 9.53022107,10.0639647 L9.53022107,10.0639647 Z M21,20 L18.1268227,20 L18.1268227,15.4294404 C18.1268227,14.2333205 17.6773871,13.4175951 16.6890875,13.4175951 C15.9331491,13.4175951 15.5127587,13.9677936 15.3170861,14.4996799 C15.2437088,14.6894609 15.255174,14.9549878 15.255174,15.2213472 L15.255174,20 L12.4087488,20 C12.4087488,20 12.4454374,11.9043411 12.4087488,11.1685235 L15.255174,11.1685235 L15.255174,12.5544244 C15.4233302,11.9484569 16.3329022,11.0836215 17.7843956,11.0836215 C19.5851952,11.0836215 21,12.3546549 21,15.0889999 L21,20 L21,20 Z" id="Shape" fill="#FFFFFF"></path>
            </g>
        </g>
    </g>
</svg>