<?xml version="1.0" encoding="UTF-8" standalone="no"?>
<svg width="218px" height="27px" viewBox="0 0 218 27" version="1.1" xmlns="http://www.w3.org/2000/svg" xmlns:xlink="http://www.w3.org/1999/xlink">
    <!-- Generator: Sketch 49.3 (51167) - http://www.bohemiancoding.com/sketch -->
    <title>Group 9 Copy</title>
    <desc>Created with Sketch.</desc>
    <defs></defs>
    <g id="Page-1" stroke="none" stroke-width="1" fill="none" fill-rule="evenodd">
        <g id="Desktop-all-documents" transform="translate(-43.000000, -34.000000)" fill="#FFFFFF">
            <g id="Group-9-Copy" transform="translate(40.000000, 31.000000)">
                <path d="M54.5849946,19.1506091 L47.5768859,19.1506091 L47.5768859,26.3661563 L43.9268293,26.3661563 L43.9268293,8.70928803 L55.4610082,8.70928803 L55.4610082,11.6561417 L47.5768859,11.6561417 L47.5768859,16.2158824 L54.5849946,16.2158824 L54.5849946,19.1506091 Z M65.3924068,26.3661563 C65.2301813,26.0508535 65.1125695,25.658752 65.039568,25.1898402 C64.1878839,26.1357486 63.0807111,26.6086957 61.7180165,26.6086957 C60.4283234,26.6086957 59.3596786,26.2368056 58.5120501,25.4930144 C57.6644216,24.7492232 57.2406137,23.8114136 57.2406137,22.6795574 C57.2406137,21.2889912 57.7576999,20.2218285 58.7918878,19.4780373 C59.8260757,18.7342461 61.3205561,18.3583138 63.275374,18.3502291 L64.8935658,18.3502291 L64.8935658,17.598357 C64.8935658,16.9920055 64.737426,16.5069315 64.4251418,16.1431206 C64.1128577,15.7793097 63.6201049,15.597407 62.9468689,15.597407 C62.3547456,15.597407 61.890382,15.7388869 61.553764,16.0218509 C61.2171459,16.3048149 61.0488395,16.6928741 61.0488395,17.18604 L57.5326182,17.18604 C57.5326182,16.4260794 57.7678417,15.7227222 58.2382958,15.0759472 C58.7087499,14.4291723 59.3738647,13.9218658 60.2336601,13.5540125 C61.0934556,13.1861593 62.0586831,13.0022354 63.1293717,13.0022354 C64.7516272,13.0022354 66.0392732,13.4084848 66.9923483,14.2209959 C67.9454234,15.0335069 68.4219539,16.1754518 68.4219539,17.6468649 L68.4219539,23.3344138 C68.4300651,24.5794556 68.604455,25.5213075 68.9451286,26.1599978 L68.9451286,26.3661563 L65.3924068,26.3661563 Z M62.4845284,23.9286353 C63.0036502,23.9286353 63.4822084,23.8134302 63.9202173,23.5830167 C64.3582263,23.3526031 64.6826726,23.0433684 64.8935658,22.6553035 L64.8935658,20.399687 L63.5795454,20.399687 C61.8193982,20.399687 60.8825597,21.0060295 60.7690018,22.2187325 L60.7568349,22.424891 C60.7568349,22.8614641 60.9109469,23.2212273 61.2191754,23.5041913 C61.527404,23.7871554 61.9491841,23.9286353 62.4845284,23.9286353 Z M79.0833638,22.7401922 C79.0833638,22.3117038 78.870446,21.9741732 78.4446039,21.7275903 C78.0187618,21.4810073 77.3353969,21.2607029 76.3944887,21.0666704 C73.2635356,20.4118107 71.6980825,19.085942 71.6980825,17.0890243 C71.6980825,15.9248293 72.1827241,14.9526603 73.1520218,14.172488 C74.1213194,13.3923157 75.3886875,13.0022354 76.9541641,13.0022354 C78.6250873,13.0022354 79.9614002,13.3943368 80.963143,14.1785515 C81.9648857,14.9627661 82.4657496,15.9814214 82.4657496,17.2345479 L78.9495284,17.2345479 C78.9495284,16.7332973 78.7873053,16.3189633 78.4628542,15.9915335 C78.1384031,15.6641036 77.6314558,15.5003912 76.9419972,15.5003912 C76.349874,15.5003912 75.8915937,15.6337865 75.5671426,15.9005812 C75.2426915,16.1673759 75.0804684,16.5069276 75.0804684,16.9192467 C75.0804684,17.3073117 75.2649971,17.6205886 75.6340603,17.8590868 C76.0031234,18.0975851 76.6256546,18.3037415 77.5016726,18.4775623 C78.3776906,18.6513831 79.1158057,18.8474338 79.7160403,19.0657204 C81.5735228,19.7448341 82.5022502,20.9211384 82.5022502,22.5946686 C82.5022502,23.7912023 81.9871918,24.759329 80.9570595,25.4990779 C79.9269273,26.2388268 78.5966977,26.6086957 76.9663309,26.6086957 C75.8631972,26.6086957 74.8837751,26.4126449 74.0280354,26.0205376 C73.1722956,25.6284303 72.5010974,25.0908067 72.0144208,24.4076506 C71.5277441,23.7244946 71.2844095,22.9867779 71.2844095,22.1944786 L74.6181278,22.1944786 C74.650573,22.8169995 74.8817409,23.2939889 75.3116386,23.625461 C75.7415363,23.9569332 76.3174284,24.1226668 77.0393321,24.1226668 C77.7125681,24.1226668 78.2215431,23.9953349 78.5662724,23.7406673 C78.9110017,23.4859996 79.0833638,23.1525113 79.0833638,22.7401922 Z M89.805608,10.0190008 L89.805608,13.2447748 L92.0564763,13.2447748 L92.0564763,15.8156924 L89.805608,15.8156924 L89.805608,22.3642562 C89.805608,22.8493374 89.8988863,23.1969737 90.0854457,23.4071756 C90.2720051,23.6173775 90.6288959,23.7224768 91.156129,23.7224768 C91.5454703,23.7224768 91.8901944,23.6941808 92.1903117,23.637588 L92.1903117,26.2933944 C91.5008531,26.5035963 90.791127,26.6086957 90.061112,26.6086957 C87.5952836,26.6086957 86.3380545,25.3677148 86.2893868,22.8857159 L86.2893868,15.8156924 L84.3670236,15.8156924 L84.3670236,13.2447748 L86.2893868,13.2447748 L86.2893868,10.0190008 L89.805608,10.0190008 Z M112.770953,19.1506091 L105.762845,19.1506091 L105.762845,26.3661563 L102.112788,26.3661563 L102.112788,8.70928803 L113.646967,8.70928803 L113.646967,11.6561417 L105.762845,11.6561417 L105.762845,16.2158824 L112.770953,16.2158824 L112.770953,19.1506091 Z M120.074311,26.3661563 L116.545923,26.3661563 L116.545923,13.2447748 L120.074311,13.2447748 L120.074311,26.3661563 Z M116.339087,9.8492232 C116.339087,9.32371855 116.515504,8.89119428 116.868345,8.55163742 C117.221185,8.21208056 117.701771,8.04230468 118.310117,8.04230468 C118.910352,8.04230468 119.38891,8.21208056 119.745806,8.55163742 C120.102702,8.89119428 120.281148,9.32371855 120.281148,9.8492232 C120.281148,10.3828125 120.100675,10.8193791 119.739723,11.158936 C119.378771,11.4984928 118.90224,11.6682687 118.310117,11.6682687 C117.717994,11.6682687 117.241464,11.4984928 116.880512,11.158936 C116.51956,10.8193791 116.339087,10.3828125 116.339087,9.8492232 Z M127.036997,13.2447748 L127.146499,14.760646 C128.087407,13.5883664 129.348692,13.0022354 130.930391,13.0022354 C132.325531,13.0022354 133.363759,13.410506 134.045106,14.2270593 C134.726453,15.0436127 135.075233,16.2643822 135.091455,17.8894043 L135.091455,26.3661563 L131.575234,26.3661563 L131.575234,17.9742931 C131.575234,17.2305019 131.413011,16.6908571 131.08856,16.3553426 C130.764109,16.0198281 130.224717,15.8520733 129.470368,15.8520733 C128.480792,15.8520733 127.738622,16.2724707 127.243834,17.1132782 L127.243834,26.3661563 L123.727612,26.3661563 L123.727612,13.2447748 L127.036997,13.2447748 Z M146.215206,26.3661563 C146.05298,26.0508535 145.935369,25.658752 145.862367,25.1898402 C145.010683,26.1357486 143.90351,26.6086957 142.540816,26.6086957 C141.251122,26.6086957 140.182478,26.2368056 139.334849,25.4930144 C138.487221,24.7492232 138.063413,23.8114136 138.063413,22.6795574 C138.063413,21.2889912 138.580499,20.2218285 139.614687,19.4780373 C140.648875,18.7342461 142.143355,18.3583138 144.098173,18.3502291 L145.716365,18.3502291 L145.716365,17.598357 C145.716365,16.9920055 145.560225,16.5069315 145.247941,16.1431206 C144.935657,15.7793097 144.442904,15.597407 143.769668,15.597407 C143.177545,15.597407 142.713181,15.7388869 142.376563,16.0218509 C142.039945,16.3048149 141.871638,16.6928741 141.871638,17.18604 L138.355417,17.18604 C138.355417,16.4260794 138.590641,15.7227222 139.061095,15.0759472 C139.531549,14.4291723 140.196664,13.9218658 141.056459,13.5540125 C141.916255,13.1861593 142.881482,13.0022354 143.952171,13.0022354 C145.574426,13.0022354 146.862072,13.4084848 147.815147,14.2209959 C148.768222,15.0335069 149.244753,16.1754518 149.244753,17.6468649 L149.244753,23.3344138 C149.252864,24.5794556 149.427254,25.5213075 149.767928,26.1599978 L149.767928,26.3661563 L146.215206,26.3661563 Z M143.307327,23.9286353 C143.826449,23.9286353 144.305007,23.8134302 144.743016,23.5830167 C145.181025,23.3526031 145.505472,23.0433684 145.716365,22.6553035 L145.716365,20.399687 L144.402344,20.399687 C142.642197,20.399687 141.705359,21.0060295 141.591801,22.2187325 L141.579634,22.424891 C141.579634,22.8614641 141.733746,23.2212273 142.041974,23.5041913 C142.350203,23.7871554 142.771983,23.9286353 143.307327,23.9286353 Z M156.012769,13.2447748 L156.122271,14.760646 C157.063179,13.5883664 158.324464,13.0022354 159.906163,13.0022354 C161.301303,13.0022354 162.33953,13.410506 163.020878,14.2270593 C163.702225,15.0436127 164.051005,16.2643822 164.067227,17.8894043 L164.067227,26.3661563 L160.551006,26.3661563 L160.551006,17.9742931 C160.551006,17.2305019 160.388783,16.6908571 160.064332,16.3553426 C159.739881,16.0198281 159.200489,15.8520733 158.44614,15.8520733 C157.456564,15.8520733 156.714394,16.2724707 156.219606,17.1132782 L156.219606,26.3661563 L152.703384,26.3661563 L152.703384,13.2447748 L156.012769,13.2447748 Z M173.037444,23.7831117 C173.686347,23.7831117 174.213572,23.6052512 174.619136,23.249525 C175.024699,22.8937988 175.23559,22.4208517 175.251812,21.8306695 L178.54903,21.8306695 C178.540919,22.7199851 178.297584,23.5345051 177.819019,24.2742539 C177.340453,25.0140028 176.685477,25.588007 175.854071,25.9962837 C175.022665,26.4045604 174.104077,26.6086957 173.098279,26.6086957 C171.216462,26.6086957 169.732121,26.0124589 168.64521,24.8199676 C167.558298,23.6274762 167.014851,21.980246 167.014851,19.8782273 L167.014851,19.6478149 C167.014851,17.6266431 167.554243,16.0137723 168.633043,14.8091539 C169.711843,13.6045355 171.192129,13.0022354 173.073945,13.0022354 C174.720534,13.0022354 176.040625,13.4691191 177.034256,14.4029004 C178.027888,15.3366818 178.532807,16.5796838 178.54903,18.1319437 L175.251812,18.1319437 C175.23559,17.45283 175.024699,16.9010583 174.619136,16.4766123 C174.213572,16.0521662 173.678235,15.8399464 173.013111,15.8399464 C172.193872,15.8399464 171.575396,16.1370541 171.157665,16.7312786 C170.739934,17.3255031 170.531072,18.2895876 170.531072,19.623561 L170.531072,19.9873701 C170.531072,21.3375128 170.737907,22.3076607 171.151582,22.8978429 C171.565257,23.488025 172.193872,23.7831117 173.037444,23.7831117 Z M185.098043,26.3661563 L181.569655,26.3661563 L181.569655,13.2447748 L185.098043,13.2447748 L185.098043,26.3661563 Z M181.362818,9.8492232 C181.362818,9.32371855 181.539236,8.89119428 181.892076,8.55163742 C182.244917,8.21208056 182.725503,8.04230468 183.333849,8.04230468 C183.934083,8.04230468 184.412641,8.21208056 184.769538,8.55163742 C185.126434,8.89119428 185.304879,9.32371855 185.304879,9.8492232 C185.304879,10.3828125 185.124406,10.8193791 184.763454,11.158936 C184.402502,11.4984928 183.925972,11.6682687 183.333849,11.6682687 C182.741725,11.6682687 182.265195,11.4984928 181.904243,11.158936 C181.543291,10.8193791 181.362818,10.3828125 181.362818,9.8492232 Z M196.452963,26.3661563 C196.290738,26.0508535 196.173126,25.658752 196.100125,25.1898402 C195.24844,26.1357486 194.141268,26.6086957 192.778573,26.6086957 C191.48888,26.6086957 190.420235,26.2368056 189.572607,25.4930144 C188.724978,24.7492232 188.30117,23.8114136 188.30117,22.6795574 C188.30117,21.2889912 188.818256,20.2218285 189.852444,19.4780373 C190.886632,18.7342461 192.381113,18.3583138 194.335931,18.3502291 L195.954122,18.3502291 L195.954122,17.598357 C195.954122,16.9920055 195.797983,16.5069315 195.485698,16.1431206 C195.173414,15.7793097 194.680662,15.597407 194.007425,15.597407 C193.415302,15.597407 192.950939,15.7388869 192.614321,16.0218509 C192.277703,16.3048149 192.109396,16.6928741 192.109396,17.18604 L188.593175,17.18604 C188.593175,16.4260794 188.828398,15.7227222 189.298852,15.0759472 C189.769307,14.4291723 190.434421,13.9218658 191.294217,13.5540125 C192.154012,13.1861593 193.11924,13.0022354 194.189928,13.0022354 C195.812184,13.0022354 197.09983,13.4084848 198.052905,14.2209959 C199.00598,15.0335069 199.48251,16.1754518 199.48251,17.6468649 L199.48251,23.3344138 C199.490622,24.5794556 199.665012,25.5213075 200.005685,26.1599978 L200.005685,26.3661563 L196.452963,26.3661563 Z M193.545085,23.9286353 C194.064207,23.9286353 194.542765,23.8134302 194.980774,23.5830167 C195.418783,23.3526031 195.743229,23.0433684 195.954122,22.6553035 L195.954122,20.399687 L194.640102,20.399687 C192.879955,20.399687 191.943116,21.0060295 191.829558,22.2187325 L191.817391,22.424891 C191.817391,22.8614641 191.971503,23.2212273 192.279732,23.5041913 C192.587961,23.7871554 193.009741,23.9286353 193.545085,23.9286353 Z M206.725034,26.3661563 L203.196646,26.3661563 L203.196646,7.73913043 L206.725034,7.73913043 L206.725034,26.3661563 Z M217.581114,22.7401922 C217.581114,22.3117038 217.368196,21.9741732 216.942354,21.7275903 C216.516512,21.4810073 215.833147,21.2607029 214.892239,21.0666704 C211.761285,20.4118107 210.195832,19.085942 210.195832,17.0890243 C210.195832,15.9248293 210.680474,14.9526603 211.649772,14.172488 C212.619069,13.3923157 213.886437,13.0022354 215.451914,13.0022354 C217.122837,13.0022354 218.45915,13.3943368 219.460893,14.1785515 C220.462636,14.9627661 220.963499,15.9814214 220.963499,17.2345479 L217.447278,17.2345479 C217.447278,16.7332973 217.285055,16.3189633 216.960604,15.9915335 C216.636153,15.6641036 216.129206,15.5003912 215.439747,15.5003912 C214.847624,15.5003912 214.389343,15.6337865 214.064892,15.9005812 C213.740441,16.1673759 213.578218,16.5069276 213.578218,16.9192467 C213.578218,17.3073117 213.762747,17.6205886 214.13181,17.8590868 C214.500873,18.0975851 215.123404,18.3037415 215.999422,18.4775623 C216.87544,18.6513831 217.613556,18.8474338 218.21379,19.0657204 C220.071273,19.7448341 221,20.9211384 221,22.5946686 C221,23.7912023 220.484942,24.759329 219.454809,25.4990779 C218.424677,26.2388268 217.094448,26.6086957 215.464081,26.6086957 C214.360947,26.6086957 213.381525,26.4126449 212.525785,26.0205376 C211.670045,25.6284303 210.998847,25.0908067 210.512171,24.4076506 C210.025494,23.7244946 209.782159,22.9867779 209.782159,22.1944786 L213.115878,22.1944786 C213.148323,22.8169995 213.379491,23.2939889 213.809388,23.625461 C214.239286,23.9569332 214.815178,24.1226668 215.537082,24.1226668 C216.210318,24.1226668 216.719293,23.9953349 217.064022,23.7406673 C217.408752,23.4859996 217.581114,23.1525113 217.581114,22.7401922 Z" id="Fast-Financials"></path>
                <path d="M14.2050443,17.2167701 L10.5943733,15.1321482 L6.40868812,22.3819676 L5.25443212,21.7155576 C3.81955425,20.8871305 3.32792878,19.0523593 4.15635591,17.6174814 L11.3989738,5.07289932 C12.2274009,3.63802145 14.0621721,3.14639599 15.49705,3.97482311 L24.7563435,9.32067875 L23.0468957,12.2815294 L14.9418581,7.60208373 L12.2967864,12.1834822 L15.0255869,13.7589559 L15.0548074,13.7083445 L15.9366779,14.2174927 L14.2050443,17.2167701 Z M16.684072,18.6480374 L18.4157056,15.64876 L22.2592852,17.8678518 L26.4449704,10.6180324 L27.5992264,11.2844424 C29.0341043,12.1128695 29.5257298,13.9476407 28.6973026,15.3825186 L21.4546848,27.9271007 C20.6262577,29.3619785 18.7914864,29.853604 17.3566086,29.0251769 L8.09731499,23.6793212 L9.80676289,20.7184706 L17.9118005,25.3979163 L20.5568721,20.8165178 L17.8280716,19.2410441 L17.7988511,19.2916555 L16.684072,18.6480374 Z" id="Combined-Shape" transform="translate(16.426829, 16.500000) rotate(-345.000000) translate(-16.426829, -16.500000) "></path>
            </g>
        </g>
    </g>
</svg>