<?xml version="1.0" encoding="UTF-8" standalone="no"?>
<svg width="137px" height="51px" viewBox="0 0 137 51" version="1.1" xmlns="http://www.w3.org/2000/svg" xmlns:xlink="http://www.w3.org/1999/xlink">
    <!-- Generator: Sketch 49.3 (51167) - http://www.bohemiancoding.com/sketch -->
    <title>Group 19</title>
    <desc>Created with Sketch.</desc>
    <defs>
        <path d="M21.1015728,15.9375 C19.5624889,15.9375 18.3148148,16.8641834 18.3148148,18.0073052 L18.3148148,20.71875 L23.8883307,20.71875 L23.8883307,18.0487013 C23.9033078,17.4926179 23.616329,16.9554573 23.0920784,16.5582937 C22.5678278,16.1611302 21.8504258,15.9373888 21.1015728,15.9375 Z" id="path-1"></path>
        <filter x="-35.9%" y="-41.8%" width="171.8%" height="183.7%" filterUnits="objectBoundingBox" id="filter-2">
            <feGaussianBlur stdDeviation="1.5" in="SourceAlpha" result="shadowBlurInner1"></feGaussianBlur>
            <feOffset dx="0" dy="1" in="shadowBlurInner1" result="shadowOffsetInner1"></feOffset>
            <feComposite in="shadowOffsetInner1" in2="SourceAlpha" operator="arithmetic" k2="-1" k3="1" result="shadowInnerInner1"></feComposite>
            <feColorMatrix values="0 0 0 0 0   0 0 0 0 0   0 0 0 0 0  0 0 0 0.5 0" type="matrix" in="shadowInnerInner1"></feColorMatrix>
        </filter>
        <path d="M42.9954812,13.3365 C42.9954812,13.3365 32.2349609,11.7555 21.5,0 C10.7650391,11.679 0.0045188147,13.26 0.0045188147,13.26 C0.0045188147,13.26 -0.864501828,42.8145 21.5,51 C43.8645018,42.8145 42.9954812,13.3365 42.9954812,13.3365 Z M29.3467452,35.1135 L13.6788142,35.1135 L13.6788142,22.3635 L16.3881139,22.3635 L16.3881139,18.8955 C16.3822715,17.45948 16.983526,16.0875462 18.0441659,15.1167446 C19.1048059,14.1459429 20.5265335,13.6662453 21.9600698,13.7955 C24.68189,14.1003553 26.7091481,16.4451733 26.6118861,19.176 L26.6118861,22.287 L29.3978641,22.287 L29.3467452,35.1135 Z" id="path-3"></path>
        <filter x="-4.7%" y="-3.9%" width="109.3%" height="107.8%" filterUnits="objectBoundingBox" id="filter-4">
            <feGaussianBlur stdDeviation="1.5" in="SourceAlpha" result="shadowBlurInner1"></feGaussianBlur>
            <feOffset dx="0" dy="1" in="shadowBlurInner1" result="shadowOffsetInner1"></feOffset>
            <feComposite in="shadowOffsetInner1" in2="SourceAlpha" operator="arithmetic" k2="-1" k3="1" result="shadowInnerInner1"></feComposite>
            <feColorMatrix values="0 0 0 0 0   0 0 0 0 0   0 0 0 0 0  0 0 0 0.5 0" type="matrix" in="shadowInnerInner1"></feColorMatrix>
        </filter>
    </defs>
    <g id="Page-1" stroke="none" stroke-width="1" fill="none" fill-rule="evenodd">
        <g id="Desktop-HD-Copy-2" transform="translate(-651.000000, -2934.000000)">
            <g id="Group-19" transform="translate(651.000000, 2934.000000)">
                <path d="M57.9070251,12.7701908 C57.9070251,12.268138 57.7316227,11.8811448 57.3808127,11.6091995 C57.0300026,11.3372542 56.3972548,11.0626982 55.4825501,10.7855233 C54.5678455,10.5083483 53.8402504,10.1997996 53.2997431,9.85986807 C52.2655032,9.2061535 51.748391,8.3537225 51.748391,7.30254947 C51.748391,6.38211937 52.1212834,5.62382184 52.8670796,5.02763416 C53.6128757,4.43144648 54.580837,4.1333571 55.7709925,4.1333571 C56.5609647,4.1333571 57.2651728,4.27978697 57.8836378,4.5726511 C58.5021029,4.86551522 58.9880325,5.28257886 59.3414411,5.82385452 C59.6948497,6.36513018 59.8715514,6.96523115 59.8715514,7.62417543 L57.9070251,7.62417543 C57.9070251,7.02798775 57.7212285,6.56124255 57.3496297,6.22392583 C56.9780309,5.88660912 56.4466267,5.71795329 55.755401,5.71795329 C55.11095,5.71795329 54.6107284,5.8565387 54.2547212,6.13371367 C53.898714,6.41088865 53.720713,6.79788187 53.720713,7.29470494 C53.720713,7.71308226 53.913006,8.0621606 54.2975977,8.34195044 C54.6821895,8.62174027 55.3162366,8.89368145 56.1997581,9.15778214 C57.0832797,9.42188282 57.7926849,9.72258701 58.327995,10.0599037 C58.8633051,10.3972204 59.2556867,10.7842137 59.5051516,11.220895 C59.7546165,11.6575763 59.8793471,12.1687734 59.8793471,12.7545017 C59.8793471,13.7063101 59.5168489,14.4633002 58.7918415,15.0254947 C58.0668341,15.5876893 57.0832815,15.8687823 55.8411541,15.8687823 C55.0199988,15.8687823 54.2651189,15.7158154 53.5764919,15.409877 C52.8878648,15.1039386 52.3525627,14.6816453 51.9705695,14.1429845 C51.5885764,13.6043237 51.3975827,12.9767671 51.3975827,12.260296 L53.3699048,12.260296 C53.3699048,12.9087808 53.5829862,13.4108261 54.0091554,13.7664468 C54.4353246,14.1220675 55.0459847,14.2998752 55.8411541,14.2998752 C56.5271826,14.2998752 57.0429956,14.1599824 57.3886084,13.8801925 C57.7342212,13.6004027 57.9070251,13.2304058 57.9070251,12.7701908 Z M65.6736605,15.8687823 C64.4731107,15.8687823 63.4999523,15.4883261 62.7541561,14.7274024 C62.00836,13.9664786 61.6354675,12.9532363 61.6354675,11.6876449 L61.6354675,11.4523088 C61.6354675,10.6050947 61.7978772,9.8481046 62.1227013,9.18131574 C62.4475254,8.51452689 62.9035715,7.99548531 63.4908535,7.62417543 C64.0781355,7.25286556 64.732971,7.06721341 65.4553798,7.06721341 C66.6039578,7.06721341 67.491364,7.43590289 68.1176248,8.17329292 C68.7438857,8.91068295 69.0570114,9.95399575 69.0570114,11.3032626 L69.0570114,12.0720271 L63.5454237,12.0720271 C63.6025927,12.7728091 63.8351633,13.3271508 64.2431424,13.7350686 C64.6511214,14.1429865 65.1643358,14.3469424 65.7828009,14.3469424 C66.6507309,14.3469424 67.3575375,13.9939418 67.903242,13.2879301 L68.9244838,14.2684971 C68.5866668,14.7757796 68.1358177,15.1693098 67.5719231,15.4490997 C67.0080284,15.7288895 66.3752806,15.8687823 65.6736605,15.8687823 Z M65.4475841,8.59689784 C64.9278655,8.59689784 64.5081991,8.77993518 64.1885722,9.14601533 C63.8689453,9.51209549 63.6649588,10.0219852 63.5766066,10.6756998 L67.186034,10.6756998 L67.186034,10.5344981 C67.1444565,9.89647271 66.9755505,9.4140386 66.6793109,9.08718132 C66.3830713,8.76032403 65.9724998,8.59689784 65.4475841,8.59689784 Z M74.5239038,14.3469424 C74.9968476,14.3469424 75.3892293,14.208357 75.7010604,13.931182 C76.0128915,13.6540071 76.179199,13.3114658 76.1999877,12.9035479 L77.985212,12.9035479 C77.9644233,13.4317492 77.8007144,13.9246426 77.4940805,14.3822428 C77.1874465,14.839843 76.7716779,15.2019955 76.2467622,15.468711 C75.7218464,15.7354265 75.1553617,15.8687823 74.547291,15.8687823 C73.3675299,15.8687823 72.4320505,15.4844039 71.7408248,14.7156356 C71.0495991,13.9468673 70.7039915,12.8852507 70.7039915,11.5307541 L70.7039915,11.3346408 C70.7039915,10.0429008 71.0470006,9.00873984 71.7330291,8.23212694 C72.4190576,7.45551403 73.3545369,7.06721341 74.5394952,7.06721341 C75.5425521,7.06721341 76.3597972,7.36138055 76.9912553,7.94972366 C77.6227133,8.53806677 77.9540289,9.31074579 77.985212,10.2677839 L76.1999877,10.2677839 C76.179199,9.78142028 76.0141908,9.38135297 75.7049583,9.06756998 C75.3957257,8.75378699 75.0020448,8.59689784 74.5239038,8.59689784 C73.9106359,8.59689784 73.4376991,8.82046487 73.1050792,9.26760563 C72.7724593,9.7147464 72.6035533,10.3932919 72.5983561,11.3032626 L72.5983561,11.6091995 C72.5983561,12.5296296 72.7633643,13.2160196 73.0933856,13.6683901 C73.4234069,14.1207606 73.9002415,14.3469424 74.5239038,14.3469424 Z M85.0580267,14.8803708 C84.5019278,15.5393151 83.7119675,15.8687823 82.6881219,15.8687823 C81.7734173,15.8687823 81.0809027,15.599456 80.6105574,15.0607952 C80.1402121,14.5221343 79.905043,13.7429183 79.905043,12.7231236 L79.905043,7.22410412 L81.7994076,7.22410412 L81.7994076,12.6995899 C81.7994076,13.7769115 82.2437603,14.3155643 83.1324791,14.3155643 C84.0523809,14.3155643 84.6734353,13.9834823 84.9956608,13.3193083 L84.9956608,7.22410412 L86.8900254,7.22410412 L86.8900254,15.7118916 L85.1048011,15.7118916 L85.0580267,14.8803708 Z M93.7679466,8.96559101 C93.5184817,8.92375328 93.2612249,8.90283473 92.9961684,8.90283473 C92.1282384,8.90283473 91.5435638,9.23753157 91.2421271,9.90693528 L91.2421271,15.7118916 L89.3477624,15.7118916 L89.3477624,7.22410412 L91.1563739,7.22410412 L91.2031484,8.17329292 C91.6605007,7.43590289 92.2945478,7.06721341 93.1053088,7.06721341 C93.3755624,7.06721341 93.599038,7.10382087 93.7757424,7.1770369 L93.7679466,8.96559101 Z M97.5119806,15.7118916 L95.6176159,15.7118916 L95.6176159,7.22410412 L97.5119806,7.22410412 L97.5119806,15.7118916 Z M95.5006798,5.01978962 C95.5006798,4.7269255 95.5929285,4.48374733 95.7774286,4.29024782 C95.9619287,4.0967483 96.2256819,4 96.5686961,4 C96.9117104,4 97.1767628,4.0967483 97.3638615,4.29024782 C97.5509602,4.48374733 97.6445081,4.7269255 97.6445081,5.01978962 C97.6445081,5.30742403 97.5509602,5.54667998 97.3638615,5.73756463 C97.1767628,5.92844928 96.9117104,6.02389018 96.5686961,6.02389018 C96.2256819,6.02389018 95.9619287,5.92844928 95.7774286,5.73756463 C95.5929285,5.54667998 95.5006798,5.30742403 95.5006798,5.01978962 Z M102.479946,5.16099126 L102.479946,7.22410412 L103.968932,7.22410412 L103.968932,8.63612052 L102.479946,8.63612052 L102.479946,13.37422 C102.479946,13.6984624 102.54361,13.9324887 102.670941,14.0763059 C102.798272,14.2201231 103.025646,14.2920307 103.353068,14.2920307 C103.57135,14.2920307 103.792227,14.2658825 104.015706,14.2135853 L104.015706,15.688358 C103.58434,15.8086415 103.168571,15.8687823 102.768388,15.8687823 C101.313176,15.8687823 100.585581,15.0608032 100.585581,13.4448208 L100.585581,8.63612052 L99.1979393,8.63612052 L99.1979393,7.22410412 L100.585581,7.22410412 L100.585581,5.16099126 L102.479946,5.16099126 Z M108.897918,12.9819932 L110.612981,7.22410412 L112.632077,7.22410412 L109.279909,16.9983954 C108.765388,18.426108 107.892274,19.1399536 106.660541,19.1399536 C106.38509,19.1399536 106.081059,19.0928869 105.748439,18.998752 L105.748439,17.5239793 L106.107043,17.5475129 C106.585185,17.5475129 106.945084,17.4599165 107.186753,17.284721 C107.428423,17.1095255 107.619416,16.8153583 107.75974,16.4022107 L108.032591,15.6726689 L105.07021,7.22410412 L107.112694,7.22410412 L108.897918,12.9819932 Z M53.4868409,21.1167766 L53.4868409,23.289713 L55.2330865,23.289713 L55.2330865,24.0584774 L53.4868409,24.0584774 L53.4868409,29.7143876 C53.4868409,30.1850621 53.5712939,30.5354478 53.7402024,30.7655554 C53.9091109,30.9956629 54.191054,31.1107149 54.5860401,31.1107149 C54.7419557,31.1107149 54.9940154,31.0845667 55.3422268,31.0322696 L55.3812055,31.8010341 C55.1369378,31.8899392 54.8043229,31.9343912 54.3833509,31.9343912 C53.7440971,31.9343912 53.2789559,31.7474316 52.9879135,31.3735069 C52.6968711,30.9995821 52.5513521,30.4491627 52.5513521,29.7222321 L52.5513521,24.0584774 L51,24.0584774 L51,23.289713 L52.5513521,23.289713 L52.5513521,21.1167766 L53.4868409,21.1167766 Z M60.965034,31.9343912 C60.2478224,31.9343912 59.5994832,31.7565835 59.019997,31.4009627 C58.4405108,31.045342 57.9896617,30.5498338 57.6674362,29.9144232 C57.3452107,29.2790127 57.1841004,28.5664745 57.1841004,27.7767873 L57.1841004,27.4394723 C57.1841004,26.6236365 57.3413129,25.8888723 57.6557426,25.2351578 C57.9701723,24.5814432 58.4080286,24.0676313 58.9693247,23.6937065 C59.5306207,23.3197818 60.1386823,23.1328222 60.7935277,23.1328222 C61.8173732,23.1328222 62.6294213,23.4845154 63.2296962,24.1879123 C63.8299712,24.8913092 64.1301041,25.8522552 64.1301041,27.0707791 L64.1301041,27.596363 L58.1117934,27.596363 L58.1117934,27.7767873 C58.1117934,28.7390551 58.3859408,29.5404972 58.9342439,30.1811375 C59.4825469,30.8217777 60.172463,31.1420931 61.0040127,31.1420931 C61.5029425,31.1420931 61.9433973,31.0505744 62.3253905,30.8675343 C62.7073836,30.6844942 63.0542905,30.3916345 63.3661217,29.9889463 L63.9508021,30.4360849 C63.2647736,31.4349607 62.2695275,31.9343912 60.965034,31.9343912 Z M60.7935277,23.9329649 C60.0919076,23.9329649 59.5007367,24.191832 59.019997,24.7095739 C58.5392573,25.2273158 58.24692,25.9228577 58.1429763,26.7962204 L63.2024112,26.7962204 L63.2024112,26.6942414 C63.1764252,25.8784056 62.9451539,25.2142416 62.5085904,24.7017294 C62.0720268,24.1892171 61.5003449,23.9329649 60.7935277,23.9329649 Z M71.5303399,29.6202532 C71.5303399,29.1548084 71.3445433,28.7808893 70.9729445,28.4984846 C70.6013457,28.2160799 70.0413574,27.9951277 69.2929627,27.8356213 C68.5445679,27.676115 67.9637912,27.4930776 67.5506149,27.2865038 C67.1374387,27.07993 66.8308093,26.8276 66.6307177,26.5295062 C66.430626,26.2314123 66.3305817,25.8705673 66.3305817,25.4469602 C66.3305817,24.7775565 66.608627,24.2245223 67.1647258,23.787841 C67.7208247,23.3511596 68.4328284,23.1328222 69.3007584,23.1328222 C70.241449,23.1328222 70.9963289,23.3668486 71.5654207,23.8349082 C72.1345125,24.3029678 72.4190541,24.9135281 72.4190541,25.6666072 L71.4835654,25.6666072 C71.4835654,25.1697842 71.2769804,24.7566428 70.8638041,24.4271706 C70.4506279,24.0976985 69.9296178,23.9329649 69.3007584,23.9329649 C68.6874905,23.9329649 68.1950646,24.0702429 67.8234658,24.344803 C67.451867,24.6193631 67.2660704,24.9762859 67.2660704,25.4155821 C67.2660704,25.8391891 67.4206844,26.1673489 67.7299169,26.4000713 C68.0391495,26.6327937 68.6030356,26.8459015 69.4215924,27.039401 C70.2401491,27.2329005 70.8534078,27.4394712 71.2613868,27.6591193 C71.6693659,27.8787674 71.9720974,28.1428641 72.1695905,28.4514174 C72.3670835,28.7599706 72.4658286,29.1338898 72.4658286,29.573186 C72.4658286,30.2896571 72.1786884,30.8623025 71.6043994,31.2911392 C71.0301104,31.719976 70.2804276,31.9343912 69.3553286,31.9343912 C68.3730605,31.9343912 67.5766038,31.6951352 66.9659345,31.2166162 C66.3552652,30.7380971 66.0499351,30.1327665 66.0499351,29.4006062 L66.9854238,29.4006062 C67.0218041,29.9497264 67.2517761,30.3772493 67.6753467,30.6831877 C68.0989174,30.9891262 68.6589057,31.1420931 69.3553286,31.1420931 C70.0049768,31.1420931 70.5298846,30.998278 70.9300679,30.7106436 C71.3302512,30.4230092 71.5303399,30.0595494 71.5303399,29.6202532 Z M76.5450793,21.1167766 L76.5450793,23.289713 L78.2913249,23.289713 L78.2913249,24.0584774 L76.5450793,24.0584774 L76.5450793,29.7143876 C76.5450793,30.1850621 76.6295323,30.5354478 76.7984409,30.7655554 C76.9673494,30.9956629 77.2492925,31.1107149 77.6442786,31.1107149 C77.8001941,31.1107149 78.0522539,31.0845667 78.4004653,31.0322696 L78.439444,31.8010341 C78.1951763,31.8899392 77.8625614,31.9343912 77.4415893,31.9343912 C76.8023355,31.9343912 76.3371944,31.7474316 76.046152,31.3735069 C75.7551096,30.9995821 75.6095906,30.4491627 75.6095906,29.7222321 L75.6095906,24.0584774 L74.0582385,24.0584774 L74.0582385,23.289713 L75.6095906,23.289713 L75.6095906,21.1167766 L76.5450793,21.1167766 Z M84.0232724,31.9343912 C83.3060608,31.9343912 82.6577217,31.7565835 82.0782355,31.4009627 C81.4987493,31.045342 81.0479002,30.5498338 80.7256747,29.9144232 C80.4034492,29.2790127 80.2423388,28.5664745 80.2423388,27.7767873 L80.2423388,27.4394723 C80.2423388,26.6236365 80.3995514,25.8888723 80.7139811,25.2351578 C81.0284108,24.5814432 81.4662671,24.0676313 82.0275632,23.6937065 C82.5888592,23.3197818 83.1969208,23.1328222 83.8517662,23.1328222 C84.8756117,23.1328222 85.6876598,23.4845154 86.2879347,24.1879123 C86.8882096,24.8913092 87.1883426,25.8522552 87.1883426,27.0707791 L87.1883426,27.596363 L81.1700318,27.596363 L81.1700318,27.7767873 C81.1700318,28.7390551 81.4441793,29.5404972 81.9924823,30.1811375 C82.5407854,30.8217777 83.2307014,31.1420931 84.0622511,31.1420931 C84.5611809,31.1420931 85.0016358,31.0505744 85.3836289,30.8675343 C85.7656221,30.6844942 86.112529,30.3916345 86.4243602,29.9889463 L87.0090406,30.4360849 C86.3230121,31.4349607 85.327766,31.9343912 84.0232724,31.9343912 Z M83.8517662,23.9329649 C83.1501461,23.9329649 82.5589751,24.191832 82.0782355,24.7095739 C81.5974958,25.2273158 81.3051585,25.9228577 81.2012148,26.7962204 L86.2606496,26.7962204 L86.2606496,26.6942414 C86.2346637,25.8784056 86.0033924,25.2142416 85.5668288,24.7017294 C85.1302652,24.1892171 84.5585834,23.9329649 83.8517662,23.9329649 Z M89.1627437,27.4551613 C89.1627437,26.1372728 89.455081,25.0874229 90.0397644,24.3055803 C90.6244478,23.5237377 91.418306,23.1328222 92.4213628,23.1328222 C93.5595464,23.1328222 94.4274634,23.5851859 95.0251397,24.4899269 L95.0251397,19.7282938 L95.9528327,19.7282938 L95.9528327,31.7775004 L95.0797099,31.7775004 L95.0407312,30.6478873 C94.4430549,31.5055608 93.5647437,31.9343912 92.4057713,31.9343912 C91.4338976,31.9343912 90.6504336,31.5408609 90.0553559,30.7537886 C89.4602781,29.9667162 89.1627437,28.9037923 89.1627437,27.5649848 L89.1627437,27.4551613 Z M90.1060282,27.6198966 C90.1060282,28.7024479 90.3217082,29.5561863 90.7530746,30.1811375 C91.184441,30.8060886 91.7925025,31.1185595 92.5772776,31.1185595 C93.7258556,31.1185595 94.5418015,30.6086697 95.0251397,29.588875 L95.0251397,25.603851 C94.5418015,24.5003808 93.7310527,23.9486539 92.592869,23.9486539 C91.808094,23.9486539 91.1974339,24.25851 90.7608703,24.8782314 C90.3243067,25.4979528 90.1060282,26.4118321 90.1060282,27.6198966 Z M57.3613233,47.8431093 C57.267774,47.5763937 57.2080072,47.1815561 57.1820213,46.6585844 C56.8545986,47.0874212 56.4375307,47.4181958 55.9308051,47.6509182 C55.4240795,47.8836406 54.8874782,48 54.320985,48 C53.510224,48 52.8540892,47.7725107 52.3525608,47.3175254 C51.8510324,46.8625401 51.6002719,46.2872799 51.6002719,45.5917276 C51.6002719,44.7654324 51.9419818,44.1117276 52.6254117,43.6305937 C53.3088416,43.1494598 54.2612115,42.9088964 55.4825501,42.9088964 L57.1742256,42.9088964 L57.1742256,41.9440185 C57.1742256,41.3373714 56.988429,40.8601669 56.6168302,40.5123908 C56.2452314,40.1646147 55.703433,39.9907292 54.9914185,39.9907292 C54.3417704,39.9907292 53.8038697,40.1580776 53.3777005,40.4927795 C52.9515313,40.8274813 52.7384499,41.2301635 52.7384499,41.7008379 L51.8029612,41.6929934 C51.8029612,41.01836 52.1147876,40.4339479 52.7384499,39.9397397 C53.3621121,39.4455315 54.1286855,39.1984311 55.038193,39.1984311 C55.9788836,39.1984311 56.7207707,39.4350722 57.2638766,39.9083616 C57.8069825,40.3816509 58.086327,41.0418927 58.1019185,41.8891068 L58.1019185,45.905509 C58.1019185,46.7265745 58.1876708,47.341057 58.3591779,47.7489749 L58.3591779,47.8431093 L57.3613233,47.8431093 Z M54.4301253,47.1684792 C55.0537876,47.1684792 55.6111774,47.0168197 56.1023114,46.7134962 C56.5934454,46.4101726 56.9507466,46.0048757 57.1742256,45.4975932 L57.1742256,43.6305937 L55.5059373,43.6305937 C54.5756411,43.6410531 53.8480461,43.8123238 53.3231303,44.1444108 C52.7982146,44.4764978 52.5357607,44.9327837 52.5357607,45.5132822 C52.5357607,45.9891864 52.711163,46.3840241 53.0619731,46.6978071 C53.4127831,47.0115901 53.8688293,47.1684792 54.4301253,47.1684792 Z M62.009663,39.3553218 L62.040846,40.8065609 C62.3578743,40.2835892 62.7528545,39.8848293 63.2257984,39.6102692 C63.6987423,39.3357091 64.2210516,39.1984311 64.792742,39.1984311 C65.6970523,39.1984311 66.3700777,39.4546834 66.8118385,39.9671956 C67.2535992,40.4797078 67.4770749,41.2484646 67.4822721,42.273489 L67.4822721,47.8431093 L66.5545791,47.8431093 L66.5545791,42.2656445 C66.5493819,41.5073356 66.3895708,40.9425347 66.0751411,40.5712248 C65.7607114,40.1999149 65.2578912,40.0142628 64.5666655,40.0142628 C63.9897779,40.0142628 63.4791621,40.1959927 63.0348028,40.559458 C62.5904434,40.9229233 62.2617263,41.4132019 62.0486417,42.0303084 L62.0486417,47.8431093 L61.1209487,47.8431093 L61.1209487,39.3553218 L62.009663,39.3553218 Z M70.0491494,43.5207702 C70.0491494,42.2028816 70.3414867,41.1530318 70.9261701,40.3711892 C71.5108534,39.5893465 72.3047116,39.1984311 73.3077684,39.1984311 C74.4459521,39.1984311 75.313869,39.6507948 75.9115454,40.5555357 L75.9115454,35.7939027 L76.8392383,35.7939027 L76.8392383,47.8431093 L75.9661155,47.8431093 L75.9271368,46.7134962 C75.3294605,47.5711697 74.4511493,48 73.2921769,48 C72.3203032,48 71.5368393,47.6064697 70.9417615,46.8193974 C70.3466838,46.0323251 70.0491494,44.9694011 70.0491494,43.6305937 L70.0491494,43.5207702 Z M70.9924338,43.6855054 C70.9924338,44.7680568 71.2081138,45.6217952 71.6394802,46.2467463 C72.0708466,46.8716974 72.6789082,47.1841683 73.4636832,47.1841683 C74.6122612,47.1841683 75.4282071,46.6742786 75.9115454,45.6544839 L75.9115454,41.6694598 C75.4282071,40.5659896 74.6174583,40.0142628 73.4792747,40.0142628 C72.6944997,40.0142628 72.0838395,40.3241188 71.6472759,40.9438403 C71.2107124,41.5635617 70.9924338,42.4774409 70.9924338,43.6855054 Z M89.5660431,47.8431093 C89.4724938,47.5763937 89.412727,47.1815561 89.3867411,46.6585844 C89.0593184,47.0874212 88.6422505,47.4181958 88.1355249,47.6509182 C87.6287993,47.8836406 87.092198,48 86.5257048,48 C85.7149438,48 85.058809,47.7725107 84.5572806,47.3175254 C84.0557522,46.8625401 83.8049917,46.2872799 83.8049917,45.5917276 C83.8049917,44.7654324 84.1467016,44.1117276 84.8301315,43.6305937 C85.5135614,43.1494598 86.4659313,42.9088964 87.6872699,42.9088964 L89.3789454,42.9088964 L89.3789454,41.9440185 C89.3789454,41.3373714 89.1931488,40.8601669 88.82155,40.5123908 C88.4499512,40.1646147 87.9081528,39.9907292 87.1961383,39.9907292 C86.5464902,39.9907292 86.0085895,40.1580776 85.5824203,40.4927795 C85.1562511,40.8274813 84.9431697,41.2301635 84.9431697,41.7008379 L84.007681,41.6929934 C84.007681,41.01836 84.3195074,40.4339479 84.9431697,39.9397397 C85.5668319,39.4455315 86.3334053,39.1984311 87.2429128,39.1984311 C88.1836034,39.1984311 88.9254905,39.4350722 89.4685964,39.9083616 C90.0117023,40.3816509 90.2910468,41.0418927 90.3066383,41.8891068 L90.3066383,45.905509 C90.3066383,46.7265745 90.3923906,47.341057 90.5638977,47.7489749 L90.5638977,47.8431093 L89.5660431,47.8431093 Z M86.6348451,47.1684792 C87.2585074,47.1684792 87.8158972,47.0168197 88.3070312,46.7134962 C88.7981652,46.4101726 89.1554664,46.0048757 89.3789454,45.4975932 L89.3789454,43.6305937 L87.7106571,43.6305937 C86.7803609,43.6410531 86.0527659,43.8123238 85.5278501,44.1444108 C85.0029344,44.4764978 84.7404805,44.9327837 84.7404805,45.5132822 C84.7404805,45.9891864 84.9158828,46.3840241 85.2666929,46.6978071 C85.6175029,47.0115901 86.0735491,47.1684792 86.6348451,47.1684792 Z M98.7515031,46.7684079 C98.1902071,47.5894734 97.293706,48 96.0619731,48 C95.16286,48 94.4794403,47.7372107 94.0116936,47.2116242 C93.5439469,46.6860377 93.30488,45.908129 93.2944856,44.8778748 L93.2944856,39.3553218 L94.2221786,39.3553218 L94.2221786,44.7602068 C94.2221786,46.3761892 94.871817,47.1841683 96.1711134,47.1841683 C97.5223817,47.1841683 98.3773059,46.6219822 98.7359117,45.4975932 L98.7359117,39.3553218 L99.6714004,39.3553218 L99.6714004,47.8431093 L98.7670946,47.8431093 L98.7515031,46.7684079 Z M102.253869,43.5207702 C102.253869,42.2028816 102.546206,41.1530318 103.13089,40.3711892 C103.715573,39.5893465 104.509431,39.1984311 105.512488,39.1984311 C106.650672,39.1984311 107.518589,39.6507948 108.116265,40.5555357 L108.116265,35.7939027 L109.043958,35.7939027 L109.043958,47.8431093 L108.170835,47.8431093 L108.131857,46.7134962 C107.53418,47.5711697 106.655869,48 105.496897,48 C104.525023,48 103.741559,47.6064697 103.146481,46.8193974 C102.551404,46.0323251 102.253869,44.9694011 102.253869,43.6305937 L102.253869,43.5207702 Z M103.197154,43.6855054 C103.197154,44.7680568 103.412834,45.6217952 103.8442,46.2467463 C104.275566,46.8716974 104.883628,47.1841683 105.668403,47.1841683 C106.816981,47.1841683 107.632927,46.6742786 108.116265,45.6544839 L108.116265,41.6694598 C107.632927,40.5659896 106.822178,40.0142628 105.683994,40.0142628 C104.899219,40.0142628 104.288559,40.3241188 103.851996,40.9438403 C103.415432,41.5635617 103.197154,42.4774409 103.197154,43.6855054 Z M113.076434,47.8431093 L112.140946,47.8431093 L112.140946,39.3553218 L113.076434,39.3553218 L113.076434,47.8431093 Z M111.977235,36.8999822 C111.977235,36.7221718 112.034403,36.5718197 112.148741,36.4489214 C112.26308,36.326023 112.418993,36.2645748 112.616486,36.2645748 C112.813979,36.2645748 112.971191,36.326023 113.088128,36.4489214 C113.205065,36.5718197 113.263532,36.7221718 113.263532,36.8999822 C113.263532,37.0777925 113.205065,37.2268372 113.088128,37.3471207 C112.971191,37.4674042 112.813979,37.527545 112.616486,37.527545 C112.418993,37.527545 112.26308,37.4674042 112.148741,37.3471207 C112.034403,37.2268372 111.977235,37.0777925 111.977235,36.8999822 Z M117.592247,37.1823855 L117.592247,39.3553218 L119.338492,39.3553218 L119.338492,40.1240863 L117.592247,40.1240863 L117.592247,45.7799964 C117.592247,46.2506709 117.6767,46.6010567 117.845608,46.8311642 C118.014517,47.0612717 118.29646,47.1763238 118.691446,47.1763238 C118.847361,47.1763238 119.099421,47.1501756 119.447633,47.0978784 L119.486611,47.8666429 C119.242344,47.9555481 118.909729,48 118.488757,48 C117.849503,48 117.384362,47.8130404 117.093319,47.4391157 C116.802277,47.065191 116.656758,46.5147716 116.656758,45.787841 L116.656758,40.1240863 L115.105406,40.1240863 L115.105406,39.3553218 L116.656758,39.3553218 L116.656758,37.1823855 L117.592247,37.1823855 Z M125.07044,48 C124.353228,48 123.704889,47.8221923 123.125403,47.4665716 C122.545917,47.1109509 122.095067,46.6154426 121.772842,45.9800321 C121.450616,45.3446215 121.289506,44.6320833 121.289506,43.8423961 L121.289506,43.5050811 C121.289506,42.6892453 121.446719,41.9544812 121.761148,41.3007666 C122.075578,40.6470521 122.513434,40.1332401 123.07473,39.7593154 C123.636026,39.3853907 124.244088,39.1984311 124.898933,39.1984311 C125.922779,39.1984311 126.734827,39.5501243 127.335102,40.2535211 C127.935377,40.956918 128.23551,41.917864 128.23551,43.1363879 L128.23551,43.6619718 L122.217199,43.6619718 L122.217199,43.8423961 C122.217199,44.804664 122.491347,45.606106 123.03965,46.2467463 C123.587953,46.8873866 124.277869,47.2077019 125.109418,47.2077019 C125.608348,47.2077019 126.048803,47.1161832 126.430796,46.9331432 C126.812789,46.7501031 127.159696,46.4572434 127.471527,46.0545552 L128.056208,46.5016937 C127.370179,47.5005696 126.374933,48 125.07044,48 Z M124.898933,39.9985737 C124.197313,39.9985737 123.606142,40.2574408 123.125403,40.7751827 C122.644663,41.2929247 122.352326,41.9884665 122.248382,42.8618292 L127.307817,42.8618292 L127.307817,42.7598502 C127.281831,41.9440145 127.05056,41.2798504 126.613996,40.7673382 C126.177433,40.254826 125.605751,39.9985737 124.898933,39.9985737 Z M130.209911,43.5207702 C130.209911,42.2028816 130.502248,41.1530318 131.086932,40.3711892 C131.671615,39.5893465 132.465473,39.1984311 133.46853,39.1984311 C134.606714,39.1984311 135.474631,39.6507948 136.072307,40.5555357 L136.072307,35.7939027 L137,35.7939027 L137,47.8431093 L136.126877,47.8431093 L136.087898,46.7134962 C135.490222,47.5711697 134.611911,48 133.452939,48 C132.481065,48 131.697601,47.6064697 131.102523,46.8193974 C130.507445,46.0323251 130.209911,44.9694011 130.209911,43.6305937 L130.209911,43.5207702 Z M131.153195,43.6855054 C131.153195,44.7680568 131.368875,45.6217952 131.800242,46.2467463 C132.231608,46.8716974 132.83967,47.1841683 133.624445,47.1841683 C134.773023,47.1841683 135.588969,46.6742786 136.072307,45.6544839 L136.072307,41.6694598 C135.588969,40.5659896 134.77822,40.0142628 133.640036,40.0142628 C132.855261,40.0142628 132.244601,40.3241188 131.808038,40.9438403 C131.371474,41.5635617 131.153195,42.4774409 131.153195,43.6855054 Z" id="Security-tested-and-Copy" fill="#908F91"></path>
                <g id="Group-11-Copy" fill-rule="nonzero">
                    <g id="Shape">
                        <use fill="#9B9B9B" fill-rule="evenodd" xlink:href="#path-1"></use>
                        <use fill="black" fill-opacity="1" filter="url(#filter-2)" xlink:href="#path-1"></use>
                    </g>
                    <g id="Shape">
                        <use fill="#9B9B9B" fill-rule="evenodd" xlink:href="#path-3"></use>
                        <use fill="black" fill-opacity="1" filter="url(#filter-4)" xlink:href="#path-3"></use>
                    </g>
                </g>
            </g>
        </g>
    </g>
</svg>