<?xml version="1.0" encoding="UTF-8" standalone="no"?>
<svg width="22px" height="22px" viewBox="0 0 22 22" version="1.1" xmlns="http://www.w3.org/2000/svg" xmlns:xlink="http://www.w3.org/1999/xlink">
    <!-- Generator: Sketch 49.3 (51167) - http://www.bohemiancoding.com/sketch -->
    <title>Group 6</title>
    <desc>Created with Sketch.</desc>
    <defs></defs>
    <g id="Page-1" stroke="none" stroke-width="1" fill="none" fill-rule="evenodd">
        <g id="mail-template" transform="translate(-486.000000, -973.000000)">
            <g id="Group-6" transform="translate(486.000000, 973.000000)">
                <rect id="Rectangle-4-Copy-2" stroke="#FFFFFF" x="0.5" y="0.5" width="21" height="21" rx="5"></rect>
                <path d="M15.5708399,8.10718378 C16.0370018,7.80974048 16.3946939,7.33810005 16.5625638,6.7762627 C16.126102,7.05236169 15.6437988,7.25203428 15.1292129,7.36013289 C14.7185772,6.8919351 14.1316781,6.6 13.4821506,6.6 C12.2360392,6.6 11.226237,7.67754345 11.226237,9.00639896 C11.226237,9.19505513 11.244961,9.37889162 11.2837002,9.55446579 C9.40872219,9.45394097 7.74616423,8.4968896 6.63241181,7.03996822 C6.43807008,7.39662478 6.32701767,7.80974048 6.32701767,8.25039723 C6.32701767,9.08489094 6.72538592,9.82161394 7.33100898,10.2540084 C6.96104948,10.2416149 6.6130422,10.1321392 6.30829371,9.95312244 L6.30829371,9.98272907 C6.30829371,11.1490924 7.08566062,12.1219799 8.119352,12.3423082 C7.92952985,12.3987674 7.73066854,12.426997 7.5240594,12.426997 C7.37878735,12.426997 7.23674356,12.4125379 7.099865,12.3843083 C7.38653519,13.3399827 8.22007396,14.0367711 9.20792393,14.0553614 C8.4350766,14.7011989 7.46207666,15.0853965 6.40514175,15.0853965 C6.22306744,15.0853965 6.04293009,15.0750686 5.86666667,15.0523472 C6.86549275,15.7346767 8.05155837,16.1333333 9.32607853,16.1333333 C13.477631,16.1333333 15.7464577,12.466243 15.7464577,9.28594058 C15.7464577,9.18128461 15.7451664,9.07731716 15.7406468,8.97472676 C16.1816282,8.63528336 16.5651464,8.21115124 16.8666667,7.72849439 C16.4618419,7.91990467 16.0266714,8.04934759 15.5708399,8.10718378 Z" id="Shape" fill="#FFFFFF"></path>
            </g>
        </g>
    </g>
</svg>